HIERARCHY
ROOT Hips
{
  OFFSET 5.72205e-005 65.662 3.42586
  CHANNELS 6 Xposition Yposition Zposition Zrotation Xrotation Yrotation
  JOINT Chest
  {
    OFFSET 0 8.7983 -4.7612
    CHANNELS 3 Zrotation Xrotation Yrotation
    JOINT Chest2
    {
      OFFSET 0 8.0291 0.4195
      CHANNELS 3 Zrotation Xrotation Yrotation
      JOINT Chest3
      {
        OFFSET 0 9.9351 -2.2114
        CHANNELS 3 Zrotation Xrotation Yrotation
        JOINT Neck
        {
          OFFSET 0 22.3885 -0.4656
          CHANNELS 3 Zrotation Xrotation Yrotation
          JOINT Head
          {
            OFFSET -0.0001 12.643 3.4389
            CHANNELS 3 Zrotation Xrotation Yrotation
            End Site
            {
              OFFSET 0.0001 17.6655 0.5274
            }
          }
        }
        JOINT LeftCollar
        {
          OFFSET 2.2603 21.606 7.4023
          CHANNELS 3 Zrotation Xrotation Yrotation
          JOINT LeftShoulder
          {
            OFFSET 13.5163 -1.1332 -5.0146
            CHANNELS 3 Zrotation Xrotation Yrotation
            JOINT LeftElbow
            {
              OFFSET -0.0995 -28.05 -0.2431
              CHANNELS 3 Zrotation Xrotation Yrotation
              JOINT LeftWrist
              {
                OFFSET 0.0679 -23.3996 -0.1402
                CHANNELS 3 Zrotation Xrotation Yrotation
                JOINT LeftFinger1
                {
                  OFFSET 0.7932 -9.069 2.5189
                  CHANNELS 3 Zrotation Xrotation Yrotation
                  JOINT LeftFinger11
                  {
                    OFFSET -0.8272 -3.3923 0.5977
                    CHANNELS 3 Zrotation Xrotation Yrotation
                    JOINT LeftFinger12
                    {
                      OFFSET -0.5649 -2.3158 0.4082
                      CHANNELS 3 Zrotation Xrotation Yrotation
                      End Site
                      {
                        OFFSET -0.4919 -1.6479 0.2673
                      }
                    }
                  }
                }
                JOINT LeftFinger2
                {
                  OFFSET 0.9159 -9.2044 0.2193
                  CHANNELS 3 Zrotation Xrotation Yrotation
                  JOINT LeftFinger21
                  {
                    OFFSET 0.0117 -4.1944 -0.0248
                    CHANNELS 3 Zrotation Xrotation Yrotation
                    JOINT LeftFinger22
                    {
                      OFFSET 0.0071 -2.3249 -0.0142
                      CHANNELS 3 Zrotation Xrotation Yrotation
                      End Site
                      {
                        OFFSET -0.1475 -2.0882 0.0028
                      }
                    }
                  }
                }
                JOINT LeftFinger3
                {
                  OFFSET 0.6113 -8.7231 -2.0637
                  CHANNELS 3 Zrotation Xrotation Yrotation
                  JOINT LeftFinger31
                  {
                    OFFSET -0.1927 -3.8059 -0.2383
                    CHANNELS 3 Zrotation Xrotation Yrotation
                    JOINT LeftFinger32
                    {
                      OFFSET -0.1091 -2.1688 -0.1362
                      CHANNELS 3 Zrotation Xrotation Yrotation
                      End Site
                      {
                        OFFSET -0.2358 -1.9176 -0.0906
                      }
                    }
                  }
                }
                JOINT LeftFinger4
                {
                  OFFSET -0.6151 -8.0947 -3.5641
                  CHANNELS 3 Zrotation Xrotation Yrotation
                  JOINT LeftFinger41
                  {
                    OFFSET -0.4882 -2.341 -0.6462
                    CHANNELS 3 Zrotation Xrotation Yrotation
                    JOINT LeftFinger42
                    {
                      OFFSET -0.3575 -1.7167 -0.4742
                      CHANNELS 3 Zrotation Xrotation Yrotation
                      End Site
                      {
                        OFFSET -0.4187 -1.5237 -0.3496
                      }
                    }
                  }
                }
                JOINT LeftFinger0
                {
                  OFFSET -1.42 -1.8761 1.4223
                  CHANNELS 3 Zrotation Xrotation Yrotation
                  JOINT LeftFinger01
                  {
                    OFFSET -1.1471 -3.4929 2.6334
                    CHANNELS 3 Zrotation Xrotation Yrotation
                    JOINT LeftFinger02
                    {
                      OFFSET -0.823 -2.3 1.6571
                      CHANNELS 3 Zrotation Xrotation Yrotation
                      End Site
                      {
                        OFFSET -0.5822 -1.6914 1.1582
                      }
                    }
                  }
                }
              }
            }
          }
        }
        JOINT RightCollar
        {
          OFFSET -2.2603 21.606 7.4023
          CHANNELS 3 Zrotation Xrotation Yrotation
          JOINT RightShoulder
          {
            OFFSET -13.5187 -1.1334 -5.0155
            CHANNELS 3 Zrotation Xrotation Yrotation
            JOINT RightElbow
            {
              OFFSET 0.0994 -28.0499 -0.2431
              CHANNELS 3 Zrotation Xrotation Yrotation
              JOINT RightWrist
              {
                OFFSET -0.0679 -23.3996 -0.1402
                CHANNELS 3 Zrotation Xrotation Yrotation
                JOINT RightFinger1
                {
                  OFFSET -0.7932 -9.0691 2.5189
                  CHANNELS 3 Zrotation Xrotation Yrotation
                  JOINT RightFinger11
                  {
                    OFFSET 0.8272 -3.3923 0.5977
                    CHANNELS 3 Zrotation Xrotation Yrotation
                    JOINT RightFinger12
                    {
                      OFFSET 0.565 -2.3158 0.4082
                      CHANNELS 3 Zrotation Xrotation Yrotation
                      End Site
                      {
                        OFFSET 0.4919 -1.6479 0.2673
                      }
                    }
                  }
                }
                JOINT RightFinger2
                {
                  OFFSET -0.916 -9.2044 0.2193
                  CHANNELS 3 Zrotation Xrotation Yrotation
                  JOINT RightFinger21
                  {
                    OFFSET -0.0117 -4.1944 -0.0248
                    CHANNELS 3 Zrotation Xrotation Yrotation
                    JOINT RightFinger22
                    {
                      OFFSET -0.0071 -2.3249 -0.0142
                      CHANNELS 3 Zrotation Xrotation Yrotation
                      End Site
                      {
                        OFFSET 0.1475 -2.0882 0.0028
                      }
                    }
                  }
                }
                JOINT RightFinger3
                {
                  OFFSET -0.6113 -8.7231 -2.0637
                  CHANNELS 3 Zrotation Xrotation Yrotation
                  JOINT RightFinger31
                  {
                    OFFSET 0.1927 -3.8059 -0.2383
                    CHANNELS 3 Zrotation Xrotation Yrotation
                    JOINT RightFinger32
                    {
                      OFFSET 0.1091 -2.1688 -0.1362
                      CHANNELS 3 Zrotation Xrotation Yrotation
                      End Site
                      {
                        OFFSET 0.2358 -1.9176 -0.0906
                      }
                    }
                  }
                }
                JOINT RightFinger4
                {
                  OFFSET 0.6151 -8.0947 -3.564
                  CHANNELS 3 Zrotation Xrotation Yrotation
                  JOINT RightFinger41
                  {
                    OFFSET 0.4882 -2.341 -0.6462
                    CHANNELS 3 Zrotation Xrotation Yrotation
                    JOINT RightFinger42
                    {
                      OFFSET 0.3574 -1.7166 -0.4742
                      CHANNELS 3 Zrotation Xrotation Yrotation
                      End Site
                      {
                        OFFSET 0.4187 -1.5237 -0.3496
                      }
                    }
                  }
                }
                JOINT RightFinger0
                {
                  OFFSET 1.4199 -1.8761 1.4221
                  CHANNELS 3 Zrotation Xrotation Yrotation
                  JOINT RightFinger01
                  {
                    OFFSET 1.1472 -3.4929 2.6336
                    CHANNELS 3 Zrotation Xrotation Yrotation
                    JOINT RightFinger02
                    {
                      OFFSET 0.8229 -2.3 1.6571
                      CHANNELS 3 Zrotation Xrotation Yrotation
                      End Site
                      {
                        OFFSET 0.5822 -1.6914 1.1582
                      }
                    }
                  }
                }
              }
            }
          }
        }
      }
    }
  }
  JOINT RightHip
  {
    OFFSET -9.412 3.9771 -0.7758
    CHANNELS 3 Zrotation Xrotation Yrotation
    JOINT RightKnee
    {
      OFFSET -0.7531 -40.938 0
      CHANNELS 3 Zrotation Xrotation Yrotation
      JOINT RightAnkle
      {
        OFFSET 0 -40.1986 0
        CHANNELS 3 Zrotation Xrotation Yrotation
        JOINT RightToe
        {
          OFFSET 0 -4.4182 9.239
          CHANNELS 3 Zrotation Xrotation Yrotation
          End Site
          {
            OFFSET 0 0 6.1981
          }
        }
      }
    }
  }
  JOINT LeftHip
  {
    OFFSET 9.4119 3.9773 -0.7758
    CHANNELS 3 Zrotation Xrotation Yrotation
    JOINT LeftKnee
    {
      OFFSET 0.7532 -40.9383 0
      CHANNELS 3 Zrotation Xrotation Yrotation
      JOINT LeftAnkle
      {
        OFFSET 0 -40.1986 0
        CHANNELS 3 Zrotation Xrotation Yrotation
        JOINT LeftToe
        {
          OFFSET 0 -4.4182 9.239
          CHANNELS 3 Zrotation Xrotation Yrotation
          End Site
          {
            OFFSET 0 0 6.1981
          }
        }
      }
    }
  }
}
MOTION
Frames:	4
Frame Time:	0.0333333
5.72205e-005 65.662 3.42586 0 0 -0 0 0 -0 0 0 -0 0 0 -0 0 0 -0 0 0 -0 0 0 -12.5014 88.1196 14.2451 10.6914 -0.00160068 -0.00239207 0.000740045 -8.4365e-005 7.00714e-005 -9.52055e-007 9.93923e-017 -1.98785e-016 -1.59028e-015 9.93923e-017 -5.96354e-016 -1.59028e-015 -9.93923e-017 -5.96354e-016 -1.59028e-015 9.93923e-017 -1.98785e-016 -1.59028e-015 -0.0128176 0.00232552 8.52707e-005 9.93923e-017 5.96354e-016 -0 9.93923e-017 -1.98785e-016 -1.59028e-015 -0.0160551 0.00299681 0.000857156 -2.48481e-016 0 3.18055e-015 9.93923e-017 -1.98785e-016 -1.59028e-015 -0.0125865 0.0031206 0.00282719 0 1.98785e-016 -0 9.93923e-017 -1.98785e-016 -1.59028e-015 9.93923e-017 -5.96354e-016 -1.59028e-015 -9.93923e-017 -5.96354e-016 -1.59028e-015 -0.865644 0.16582 7.03859 -88.0329 10.2057 -10.5567 0.0015593 -0.00248883 -0.000788628 7.87605e-005 4.10553e-005 1.24965e-005 -3.97569e-016 -7.95139e-016 3.18055e-015 -1.98785e-016 -3.97569e-016 3.18055e-015 -1.98785e-016 0 3.18055e-015 -3.97569e-016 -7.95139e-016 3.18055e-015 0.0129473 0.00231697 -8.70038e-005 9.93923e-017 -7.95139e-016 1.59028e-015 -3.97569e-016 -7.95139e-016 3.18055e-015 0.0163314 0.00303369 -0.000872333 3.97569e-016 7.95139e-016 -3.18055e-015 -3.97569e-016 -7.95139e-016 3.18055e-015 0.0145763 0.00367772 -0.00326275 9.93923e-017 -3.97569e-016 -0 -3.97569e-016 -7.95139e-016 3.18055e-015 -1.98785e-016 -3.97569e-016 3.18055e-015 -1.98785e-016 0 3.18055e-015 3.42482 1.32465 -0.0626183 0.000117508 0.717283 0.000978199 -3.4257 -2.04197 -0.0604716 6.47761e-025 0 -0 -3.42483 1.34017 0.0627307 -0.000193936 0.682302 -0.0013703 3.42574 -2.02253 0.0595886 -8.45714e-024 0 -7.40531e-025 
7.83207 6.41895 -41.2408 -0 0 1.79221e-010 0.133568 0.0480364 0.00382525 0.267122 0.096078 0.00753824 0.267122 0.0960779 0.00753824 0.012687 0.208236 -9.49703e-006 2.00969e-007 -25.0011 3.15799e-008 -13.8414 3.47491 -42.3504 93.3742 -11.2356 73.1754 -5.46023 -43.8388 39.3093 -15.4642 -7.25961 36.54 8.50499e-006 -1.51769e-005 7.29549e-006 -7.72969e-006 5.84457e-006 -2.88561e-006 9.54166e-015 6.36111e-015 3.18055e-015 8.50499e-006 -1.51769e-005 7.29549e-006 -0.0127653 0.00232967 8.67851e-005 -3.18055e-015 1.27222e-014 3.18055e-015 8.50499e-006 -1.51769e-005 7.29549e-006 -0.0160931 0.00302373 0.000847408 -3.18055e-015 -3.18055e-015 -0 8.50499e-006 -1.51769e-005 7.29549e-006 -0.012533 0.00312233 0.00280846 -3.18055e-015 -6.36111e-015 6.36111e-015 8.50499e-006 -1.51769e-005 7.29549e-006 -7.72969e-006 5.84457e-006 -2.88561e-006 9.54166e-015 6.36111e-015 3.18055e-015 20.4086 8.12623 46.4577 -77.6586 -26.4013 -67.7195 18.1773 -8.51363 -32.4102 16.4378 -6.89 -36.1931 -5.86277e-006 7.49672e-006 1.87923e-006 4.05533e-006 7.7207e-006 -2.90832e-006 -0 -6.36111e-015 -0 -5.86277e-006 7.49672e-006 1.87923e-006 0.0129641 0.00231479 -9.5267e-005 7.95139e-016 0 -5.96354e-016 -5.86277e-006 7.49672e-006 1.87923e-006 0.0163346 0.00304331 -0.000883383 -7.95139e-016 3.18055e-015 -1.98785e-016 -5.86277e-006 7.49672e-006 1.87923e-006 0.0145787 0.0036712 -0.0032726 -1.43452e-031 3.18055e-015 2.5842e-015 -5.86277e-006 7.49672e-006 1.87923e-006 4.05533e-006 7.7207e-006 -2.90832e-006 -0 -6.36111e-015 -0 -172.712 -64.7001 -177.846 -165.567 68.0021 164.239 -6.34825 -2.89447 -10.3253 -3.97569e-016 0 -1.59028e-015 5.93966 -37.0023 14.2809 175.794 24.6139 -171.041 6.01169 33.3865 9.99877 -3.8046e-008 -8.37771e-009 -9.38723e-007 
7.83207 6.41895 -41.2408 -0 0 1.79221e-010 0.133568 0.0480364 0.00382525 0.267122 0.096078 0.00753824 0.267122 0.0960779 0.00753824 0.012687 0.208236 -9.49703e-006 0.0702712 -24.4964 0.05939 -14.1547 3.64603 -42.1858 92.8574 -11.0213 73.1262 -6.91251 -44.9519 38.3307 -15.9115 -7.55401 36.4277 6.36111e-015 -9.54166e-015 -6.36111e-015 -4.76232e-008 -9.16598e-006 -3.89422e-007 3.18055e-015 3.18055e-015 -0 6.36111e-015 -9.54166e-015 -6.36111e-015 -0.0128093 0.00231996 8.99569e-005 6.36111e-015 3.18055e-015 6.36111e-015 6.36111e-015 -9.54166e-015 -6.36111e-015 -0.0160915 0.0030053 0.00085694 -1.27222e-014 3.18055e-015 3.18055e-015 6.36111e-015 -9.54166e-015 -6.36111e-015 -0.012623 0.00312371 0.00284501 6.36111e-015 6.36111e-015 -0 6.36111e-015 -9.54166e-015 -6.36111e-015 -4.76232e-008 -9.16598e-006 -3.89422e-007 3.18055e-015 3.18055e-015 -0 20.4086 8.12623 46.4577 -77.6586 -26.4013 -67.7195 18.1773 -8.51363 -32.4102 16.4378 -6.89 -36.1931 -5.86277e-006 7.49672e-006 1.87923e-006 4.05533e-006 7.7207e-006 -2.90832e-006 -0 -6.36111e-015 -0 -5.86277e-006 7.49672e-006 1.87923e-006 0.0129641 0.00231479 -9.5267e-005 7.95139e-016 0 -5.96354e-016 -5.86277e-006 7.49672e-006 1.87923e-006 0.0163346 0.00304331 -0.000883383 -7.95139e-016 3.18055e-015 -1.98785e-016 -5.86277e-006 7.49672e-006 1.87923e-006 0.0145787 0.0036712 -0.0032726 -1.43452e-031 3.18055e-015 2.5842e-015 -5.86277e-006 7.49672e-006 1.87923e-006 4.05533e-006 7.7207e-006 -2.90832e-006 -0 -6.36111e-015 -0 -172.712 -64.7001 -177.846 -165.567 68.0021 164.239 -6.34825 -2.89447 -10.3253 -3.97569e-016 0 -1.59028e-015 5.93966 -37.0023 14.2809 175.794 24.6139 -171.041 6.01169 33.3865 9.99877 -3.8046e-008 -8.37771e-009 -9.38723e-007 
7.83207 6.41895 -41.2408 -0 0 1.79221e-010 0.133568 0.0480364 0.00382525 0.267122 0.096078 0.00753824 0.267122 0.0960779 0.00753824 0.012687 0.208236 -9.49703e-006 0.139776 -23.991 0.117938 -14.4689 3.81637 -42.02 92.3393 -10.8068 73.0788 -8.43086 -46.0553 37.2847 -16.3603 -7.8478 36.3129 -9.54166e-015 -9.54166e-015 6.36111e-015 4.59684e-006 4.73032e-006 -3.10488e-006 3.18055e-015 2.22639e-014 -1.90833e-014 -9.54166e-015 -9.54166e-015 6.36111e-015 -0.01282 0.00232369 9.26684e-005 6.36111e-015 9.54166e-015 -3.18055e-015 -9.54166e-015 -9.54166e-015 6.36111e-015 -0.0160691 0.00299497 0.000856952 3.18055e-015 -3.18055e-015 -3.18055e-015 -9.54166e-015 -9.54166e-015 6.36111e-015 -0.0125371 0.00309493 0.00283497 0 1.27222e-014 -0 -9.54166e-015 -9.54166e-015 6.36111e-015 4.59684e-006 4.73032e-006 -3.10488e-006 3.18055e-015 2.22639e-014 -1.90833e-014 20.4086 8.12623 46.4577 -77.6586 -26.4013 -67.7194 18.1773 -8.51359 -32.4102 16.4378 -6.89005 -36.1931 -5.86278e-006 7.64473e-006 1.87923e-006 2.57758e-007 8.33722e-006 -6.93713e-006 1.21131e-006 -5.89129e-007 6.81623e-006 -5.86278e-006 7.64473e-006 1.87923e-006 0.0129603 0.00233319 -8.56463e-005 -5.26471e-006 -5.21144e-006 -3.90814e-006 -5.86278e-006 7.64473e-006 1.87923e-006 0.0163335 0.00303953 -0.000875974 -0 -3.18055e-015 -0 -5.86278e-006 7.64473e-006 1.87923e-006 0.014578 0.00369511 -0.00326265 -5.4344e-006 -4.94108e-006 -4.48351e-006 -5.86278e-006 7.64473e-006 1.87923e-006 2.57758e-007 8.33722e-006 -6.93713e-006 1.21131e-006 -5.89129e-007 6.81623e-006 -172.712 -64.7001 -177.846 -165.567 68.0021 164.239 -6.34825 -2.89442 -10.3253 -1.98785e-016 -3.18055e-015 -0 5.93968 -37.0024 14.281 175.794 24.6139 -171.041 6.01169 33.3865 9.99878 -7.95139e-016 6.36111e-015 -3.18055e-015 
